<svg xmlns="http://www.w3.org/2000/svg" width="1024" height="1024" viewBox="0 0 1024 1024">
<g>
<path d="M 0.00 0.00 L 1024.00 0.00 L 1024.00 1024.00 L 0.00 1024.00 ZM 310.15 804.50 C313.87,805.55 318.59,805.88 325.67,805.61 C339.05,805.10 344.19,802.77 356.30,791.75 C417.67,735.90 438.78,716.31 440.76,713.41 C445.43,706.53 446.27,702.46 446.70,684.50 C447.17,665.30 446.47,662.53 440.10,658.27 C435.38,655.12 425.41,655.11 418.82,658.26 C415.71,659.75 402.85,671.06 380.44,692.00 C361.90,709.33 346.33,723.65 345.84,723.84 C345.32,724.04 345.09,660.11 345.28,569.84 C345.59,428.92 345.35,413.38 348.96,398.78 C349.69,395.83 350.58,392.91 351.66,389.00 C358.12,365.68 369.87,342.60 385.03,323.50 C391.91,314.82 410.17,297.35 419.79,290.21 C439.66,275.49 463.85,264.59 489.00,259.02 C503.86,255.73 517.25,254.69 536.99,255.30 C564.34,256.14 583.55,260.61 606.82,271.56 C660.12,296.62 698.53,346.13 710.00,404.55 C714.37,426.81 713.75,457.96 708.42,483.16 C695.35,545.08 652.25,597.45 595.38,620.51 C571.40,630.24 555.48,633.06 521.00,633.67 C491.91,634.19 488.11,634.81 481.72,640.08 C475.50,645.21 472.72,651.05 472.20,660.15 C471.85,666.16 472.17,669.15 473.53,672.71 C475.93,679.00 481.92,685.26 488.27,688.14 C493.38,690.44 494.16,690.50 521.50,690.45 C551.32,690.40 561.25,689.54 579.89,685.38 C613.70,677.83 648.97,660.90 676.39,639.04 C727.53,598.28 761.23,536.47 769.09,469.00 C770.77,454.58 770.54,421.20 768.66,406.93 C762.85,362.79 744.50,319.49 716.98,285.00 C708.53,274.41 688.26,254.55 677.00,245.84 C643.08,219.58 604.83,203.39 562.50,197.38 C546.21,195.07 514.76,195.07 498.50,197.39 C470.58,201.36 447.08,208.47 423.42,220.09 C346.78,257.75 296.57,331.22 288.96,416.87 C288.28,424.50 288.02,489.75 288.21,606.50 L 288.50 784.50 L 291.15 789.50 C295.18,797.10 301.45,802.05 310.15,804.50 ZM 537.33 430.06 C542.35,432.34 543.14,432.39 547.33,430.64 C554.17,427.78 558.16,420.03 556.06,413.67 C551.00,398.35 527.67,402.77 529.31,418.74 C529.90,424.39 532.29,427.77 537.33,430.06 ZM 602.33 415.06 C607.65,417.48 609.17,417.46 614.12,414.94 C619.13,412.38 622.54,405.71 621.55,400.43 C619.70,390.55 607.46,385.92 599.58,392.11 C591.26,398.66 592.70,410.69 602.33,415.06 ZM 613.26 474.36 C622.77,479.05 633.27,472.52 633.27,461.92 C633.27,454.12 627.61,449.00 618.98,449.00 C614.26,449.00 613.40,449.37 609.88,452.88 C606.46,456.30 606.00,457.33 606.00,461.51 C606.00,467.30 608.72,472.12 613.26,474.36 ZM 440.71 416.91 C445.25,419.31 447.03,419.43 451.33,417.64 C456.69,415.40 460.00,410.63 460.00,405.17 C459.99,397.09 454.41,391.00 447.02,391.00 C432.25,391.00 427.62,410.00 440.71,416.91 ZM 432.23 472.99 C439.49,476.24 446.71,473.17 450.17,465.35 C451.74,461.80 451.90,460.34 451.06,457.21 C447.97,445.75 432.07,443.27 425.96,453.30 C421.68,460.32 424.63,469.59 432.23,472.99 ZM 505.71 409.96 C512.81,413.80 521.39,410.49 524.50,402.71 C528.65,392.33 518.90,381.62 508.21,384.82 C496.04,388.47 494.50,403.90 505.71,409.96 ZM 450.30 528.04 C460.75,534.42 474.20,524.56 470.98,512.88 C467.90,501.72 451.97,499.44 445.96,509.30 C442.13,515.58 444.14,524.29 450.30,528.04 ZM 582.42 514.58 C586.20,516.23 589.01,516.33 592.68,514.93 C602.36,511.27 604.77,499.84 597.42,492.49 C594.31,489.38 593.36,489.00 588.61,489.00 C581.99,489.00 577.17,491.95 575.17,497.22 C572.60,503.96 575.84,511.72 582.42,514.58 ZM 515.79 523.01 C519.60,524.16 519.69,524.15 523.33,522.64 C527.37,520.95 531.61,516.04 532.49,512.03 C533.95,505.38 528.60,497.77 521.54,496.44 C514.07,495.04 506.28,500.52 505.29,507.87 C504.34,514.96 508.37,520.77 515.79,523.01 ZM 473.96 383.75 C479.04,386.31 479.80,386.40 483.68,384.94 C487.65,383.44 491.76,379.24 493.03,375.40 C495.35,368.38 490.02,359.53 482.76,358.35 C466.87,355.77 459.67,376.54 473.96,383.75 ZM 512.68 466.55 L 512.80 466.59 C515.33,467.49 516.48,467.91 517.61,467.84 C518.58,467.79 519.54,467.38 521.33,466.64 C525.12,465.05 529.72,459.95 530.63,456.33 C531.58,452.55 529.34,446.46 525.95,443.61 C515.36,434.70 499.62,445.22 503.94,458.31 C505.33,462.54 507.70,464.78 512.68,466.55 ZM 493.30 556.04 C495.06,557.12 498.08,557.99 500.00,557.99 C501.92,557.99 504.94,557.12 506.70,556.04 C518.96,548.56 514.27,531.01 500.00,531.01 C485.73,531.01 481.04,548.56 493.30,556.04 ZM 547.02 547.25 C551.24,549.37 553.99,549.45 558.45,547.58 C567.06,543.99 568.95,531.80 561.98,524.83 C559.51,522.36 558.40,522.00 553.21,522.00 C548.70,522.00 546.63,522.50 544.61,524.09 C536.39,530.55 537.64,542.54 547.02,547.25 ZM 524.19 367.97 C529.40,371.15 536.10,370.73 540.40,366.95 C547.35,360.85 547.37,352.17 540.45,346.09 C534.25,340.65 524.66,342.60 519.99,350.24 C516.37,356.18 518.31,364.39 524.19,367.97 ZM 573.50 451.22 C577.64,453.83 585.11,453.18 588.63,449.89 C594.21,444.68 595.51,437.99 592.04,432.30 C585.99,422.38 570.03,424.74 567.00,436.01 C565.35,442.14 567.65,447.52 573.50,451.22 ZM 568.24 384.01 C572.20,386.42 576.07,386.53 580.63,384.37 C584.69,382.44 586.68,379.87 588.07,374.74 C588.90,371.65 588.73,370.18 587.13,366.56 C584.85,361.40 581.00,359.00 575.00,359.00 C560.56,359.00 555.85,376.45 568.24,384.01 ZM 546.30 489.04 C555.36,494.57 566.99,488.08 566.99,477.50 C566.99,467.30 557.33,461.33 547.49,465.44 C538.18,469.33 537.46,483.65 546.30,489.04 ZM 473.30 496.04 C482.36,501.57 493.99,495.08 493.99,484.50 C493.99,474.43 484.21,468.38 474.49,472.44 C465.18,476.33 464.46,490.65 473.30,496.04 ZM 474.12 442.29 C483.78,447.05 494.01,440.61 494.00,429.78 C493.99,420.21 482.79,413.95 473.91,418.55 C464.70,423.31 464.84,437.72 474.12,442.29 Z" fill="rgb(10,14,17)"/>
<path d="M 310.15 804.50 C301.45,802.05 295.18,797.10 291.15,789.50 L 288.50 784.50 L 288.21 606.50 C288.02,489.75 288.28,424.50 288.96,416.87 C296.57,331.22 346.78,257.75 423.42,220.09 C447.08,208.47 470.58,201.36 498.50,197.39 C514.76,195.07 546.21,195.07 562.50,197.38 C604.83,203.39 643.08,219.58 677.00,245.84 C688.26,254.55 708.53,274.41 716.98,285.00 C744.50,319.49 762.85,362.79 768.66,406.93 C770.54,421.20 770.77,454.58 769.09,469.00 C761.23,536.47 727.53,598.28 676.39,639.04 C648.97,660.90 613.70,677.83 579.89,685.38 C561.25,689.54 551.32,690.40 521.50,690.45 C494.16,690.50 493.38,690.44 488.27,688.14 C481.92,685.26 475.93,679.00 473.53,672.71 C472.17,669.15 471.85,666.16 472.20,660.15 C472.72,651.05 475.50,645.21 481.72,640.08 C488.11,634.81 491.91,634.19 521.00,633.67 C555.48,633.06 571.40,630.24 595.38,620.51 C652.25,597.45 695.35,545.08 708.42,483.16 C713.75,457.96 714.37,426.81 710.00,404.55 C698.53,346.13 660.12,296.62 606.82,271.56 C583.55,260.61 564.34,256.14 536.99,255.30 C517.25,254.69 503.86,255.73 489.00,259.02 C463.85,264.59 439.66,275.49 419.79,290.21 C410.17,297.35 391.91,314.82 385.03,323.50 C369.87,342.60 358.12,365.68 351.66,389.00 C350.58,392.91 349.69,395.83 348.96,398.78 C345.35,413.38 345.59,428.92 345.28,569.84 C345.09,660.11 345.32,724.04 345.84,723.84 C346.33,723.65 361.90,709.33 380.44,692.00 C402.85,671.06 415.71,659.75 418.82,658.26 C425.41,655.11 435.38,655.12 440.10,658.27 C446.47,662.53 447.17,665.30 446.70,684.50 C446.27,702.46 445.43,706.53 440.76,713.41 C438.78,716.31 417.67,735.90 356.30,791.75 C344.19,802.77 339.05,805.10 325.67,805.61 C318.59,805.88 313.87,805.55 310.15,804.50 Z" fill="rgb(204,244,33)"/>
<path d="M 493.30 556.04 C481.04,548.56 485.73,531.01 500.00,531.01 C514.27,531.01 518.96,548.56 506.70,556.04 C504.94,557.12 501.92,557.99 500.00,557.99 C498.08,557.99 495.06,557.12 493.30,556.04 ZM 547.02 547.25 C537.64,542.54 536.39,530.55 544.61,524.09 C546.63,522.50 548.70,522.00 553.21,522.00 C558.40,522.00 559.51,522.36 561.98,524.83 C568.95,531.80 567.06,543.99 558.45,547.58 C553.99,549.45 551.24,549.37 547.02,547.25 ZM 450.30 528.04 C444.14,524.29 442.13,515.58 445.96,509.30 C451.97,499.44 467.90,501.72 470.98,512.88 C474.20,524.56 460.75,534.42 450.30,528.04 ZM 515.79 523.01 C508.37,520.77 504.34,514.96 505.29,507.87 C506.28,500.52 514.07,495.04 521.54,496.44 C528.60,497.77 533.95,505.38 532.49,512.03 C531.61,516.04 527.37,520.95 523.33,522.64 C519.69,524.15 519.60,524.16 515.79,523.01 ZM 582.42 514.58 C575.84,511.72 572.60,503.96 575.17,497.22 C577.17,491.95 581.99,489.00 588.61,489.00 C593.36,489.00 594.31,489.38 597.42,492.49 C604.77,499.84 602.36,511.27 592.68,514.93 C589.01,516.33 586.20,516.23 582.42,514.58 ZM 473.30 496.04 C464.46,490.65 465.18,476.33 474.49,472.44 C484.21,468.38 493.99,474.43 493.99,484.50 C493.99,495.08 482.36,501.57 473.30,496.04 ZM 546.30 489.04 C537.46,483.65 538.18,469.33 547.49,465.44 C557.33,461.33 566.99,467.30 566.99,477.50 C566.99,488.08 555.36,494.57 546.30,489.04 ZM 613.26 474.36 C608.72,472.12 606.00,467.30 606.00,461.51 C606.00,457.33 606.46,456.30 609.88,452.88 C613.40,449.37 614.26,449.00 618.98,449.00 C627.61,449.00 633.27,454.12 633.27,461.92 C633.27,472.52 622.77,479.05 613.26,474.36 ZM 432.23 472.99 C424.63,469.59 421.68,460.32 425.96,453.30 C432.07,443.27 447.97,445.75 451.06,457.21 C451.90,460.34 451.74,461.80 450.17,465.35 C446.71,473.17 439.49,476.24 432.23,472.99 ZM 512.68 466.55 C507.70,464.78 505.33,462.54 503.94,458.31 C499.62,445.22 515.36,434.70 525.95,443.61 C529.34,446.46 531.58,452.55 530.63,456.33 C529.72,459.95 525.12,465.05 521.33,466.64 C517.42,468.27 517.50,468.27 512.68,466.55 ZM 573.50 451.22 C567.65,447.52 565.35,442.14 567.00,436.01 C570.03,424.74 585.99,422.38 592.04,432.30 C595.51,437.99 594.21,444.68 588.63,449.89 C585.11,453.18 577.64,453.83 573.50,451.22 ZM 474.12 442.29 C464.84,437.72 464.70,423.31 473.91,418.55 C482.79,413.95 493.99,420.21 494.00,429.78 C494.01,440.61 483.78,447.05 474.12,442.29 ZM 537.33 430.06 C532.29,427.77 529.90,424.39 529.31,418.74 C527.67,402.77 551.00,398.35 556.06,413.67 C558.16,420.03 554.17,427.78 547.33,430.64 C543.14,432.39 542.35,432.34 537.33,430.06 ZM 440.71 416.91 C427.62,410.00 432.25,391.00 447.02,391.00 C454.41,391.00 459.99,397.09 460.00,405.17 C460.00,410.63 456.69,415.40 451.33,417.64 C447.03,419.43 445.25,419.31 440.71,416.91 ZM 602.33 415.06 C592.70,410.69 591.26,398.66 599.58,392.11 C607.46,385.92 619.70,390.55 621.55,400.43 C622.54,405.71 619.13,412.38 614.12,414.94 C609.17,417.46 607.65,417.48 602.33,415.06 ZM 505.71 409.96 C494.50,403.90 496.04,388.47 508.21,384.82 C518.90,381.62 528.65,392.33 524.50,402.71 C521.39,410.49 512.81,413.80 505.71,409.96 ZM 473.96 383.75 C459.67,376.54 466.87,355.77 482.76,358.35 C490.02,359.53 495.35,368.38 493.03,375.40 C491.76,379.24 487.65,383.44 483.68,384.94 C479.80,386.40 479.04,386.31 473.96,383.75 ZM 568.24 384.01 C555.85,376.45 560.56,359.00 575.00,359.00 C581.00,359.00 584.85,361.40 587.13,366.56 C588.73,370.18 588.90,371.65 588.07,374.74 C586.68,379.87 584.69,382.44 580.63,384.37 C576.07,386.53 572.20,386.42 568.24,384.01 ZM 524.19 367.97 C518.31,364.39 516.37,356.18 519.99,350.24 C524.66,342.60 534.25,340.65 540.45,346.09 C547.37,352.17 547.35,360.85 540.40,366.95 C536.10,370.73 529.40,371.15 524.19,367.97 Z" fill="rgb(251,251,251)"/>
</g>
</svg>